<mxfile host="app.diagrams.net" modified="2022-04-30T14:11:27.412Z" agent="5.0 (Windows NT 10.0; Win64; x64) AppleWebKit/537.36 (KHTML, like Gecko) Chrome/101.0.4951.41 Safari/537.36" etag="rTKAjp-kS8j9BJBAXeH6" version="17.5.0" type="github">
  <diagram id="ZwpJj0XV8tQxswqeqpEL" name="Page-1">
    <mxGraphModel dx="1178" dy="641" grid="1" gridSize="10" guides="1" tooltips="1" connect="1" arrows="1" fold="1" page="1" pageScale="1" pageWidth="827" pageHeight="1169" math="0" shadow="0">
      <root>
        <mxCell id="0" />
        <mxCell id="1" parent="0" />
        <mxCell id="J7GmsLI8zdn7EktJSz5x-2" value="CLOSE" style="rounded=0;whiteSpace=wrap;html=1;fillColor=#f8cecc;strokeColor=#b85450;gradientColor=#ea6b66;" vertex="1" parent="1">
          <mxGeometry x="470" y="140" width="110" height="60" as="geometry" />
        </mxCell>
        <mxCell id="J7GmsLI8zdn7EktJSz5x-3" value="SYN_SEND" style="rounded=0;whiteSpace=wrap;html=1;fillColor=#ffe6cc;strokeColor=#d79b00;" vertex="1" parent="1">
          <mxGeometry x="190" y="200" width="110" height="210" as="geometry" />
        </mxCell>
        <mxCell id="J7GmsLI8zdn7EktJSz5x-4" value="LISTEN" style="rounded=0;whiteSpace=wrap;html=1;fillColor=#d5e8d4;strokeColor=#82b366;" vertex="1" parent="1">
          <mxGeometry x="470" y="200" width="110" height="60" as="geometry" />
        </mxCell>
        <mxCell id="J7GmsLI8zdn7EktJSz5x-5" value="客户端" style="text;html=1;align=center;verticalAlign=middle;resizable=0;points=[];autosize=1;strokeColor=none;fillColor=none;" vertex="1" parent="1">
          <mxGeometry x="220" y="110" width="50" height="20" as="geometry" />
        </mxCell>
        <mxCell id="J7GmsLI8zdn7EktJSz5x-6" value="服务端" style="text;html=1;align=center;verticalAlign=middle;resizable=0;points=[];autosize=1;strokeColor=none;fillColor=none;" vertex="1" parent="1">
          <mxGeometry x="500" y="110" width="50" height="20" as="geometry" />
        </mxCell>
        <mxCell id="J7GmsLI8zdn7EktJSz5x-8" value="SYN_RCVD" style="rounded=0;whiteSpace=wrap;html=1;fillColor=#ffe6cc;strokeColor=#d79b00;" vertex="1" parent="1">
          <mxGeometry x="470" y="260" width="110" height="210" as="geometry" />
        </mxCell>
        <mxCell id="J7GmsLI8zdn7EktJSz5x-9" value="ESTABLISHED" style="rounded=0;whiteSpace=wrap;html=1;fillColor=#dae8fc;strokeColor=#6c8ebf;" vertex="1" parent="1">
          <mxGeometry x="190" y="410" width="110" height="140" as="geometry" />
        </mxCell>
        <mxCell id="J7GmsLI8zdn7EktJSz5x-10" value="ESTABLISHED" style="rounded=0;whiteSpace=wrap;html=1;fillColor=#dae8fc;strokeColor=#6c8ebf;" vertex="1" parent="1">
          <mxGeometry x="470" y="470" width="110" height="80" as="geometry" />
        </mxCell>
        <mxCell id="J7GmsLI8zdn7EktJSz5x-11" value="CLOSE" style="rounded=0;whiteSpace=wrap;html=1;fillColor=#f8cecc;strokeColor=#b85450;gradientColor=#ea6b66;" vertex="1" parent="1">
          <mxGeometry x="190" y="140" width="110" height="60" as="geometry" />
        </mxCell>
        <mxCell id="J7GmsLI8zdn7EktJSz5x-12" value="" style="endArrow=classic;html=1;rounded=0;exitX=1;exitY=0;exitDx=0;exitDy=0;entryX=0;entryY=0;entryDx=0;entryDy=0;" edge="1" parent="1" source="J7GmsLI8zdn7EktJSz5x-3" target="J7GmsLI8zdn7EktJSz5x-8">
          <mxGeometry width="50" height="50" relative="1" as="geometry">
            <mxPoint x="390" y="320" as="sourcePoint" />
            <mxPoint x="440" y="270" as="targetPoint" />
          </mxGeometry>
        </mxCell>
        <mxCell id="J7GmsLI8zdn7EktJSz5x-15" value="SYN" style="text;html=1;align=center;verticalAlign=middle;resizable=0;points=[];autosize=1;strokeColor=none;fillColor=none;" vertex="1" parent="1">
          <mxGeometry x="360" y="200" width="40" height="20" as="geometry" />
        </mxCell>
        <mxCell id="J7GmsLI8zdn7EktJSz5x-16" value="Seq_Num = cliend_isn" style="text;html=1;align=center;verticalAlign=middle;resizable=0;points=[];autosize=1;strokeColor=none;fillColor=none;" vertex="1" parent="1">
          <mxGeometry x="320" y="240" width="140" height="20" as="geometry" />
        </mxCell>
        <mxCell id="J7GmsLI8zdn7EktJSz5x-17" value="" style="endArrow=classic;html=1;rounded=0;exitX=0;exitY=0;exitDx=0;exitDy=0;entryX=1;entryY=0;entryDx=0;entryDy=0;" edge="1" parent="1" source="J7GmsLI8zdn7EktJSz5x-8" target="J7GmsLI8zdn7EktJSz5x-9">
          <mxGeometry width="50" height="50" relative="1" as="geometry">
            <mxPoint x="390" y="300" as="sourcePoint" />
            <mxPoint x="440" y="250" as="targetPoint" />
          </mxGeometry>
        </mxCell>
        <mxCell id="J7GmsLI8zdn7EktJSz5x-18" value="SYN+ACK" style="text;html=1;align=center;verticalAlign=middle;resizable=0;points=[];autosize=1;strokeColor=none;fillColor=none;" vertex="1" parent="1">
          <mxGeometry x="345" y="300" width="70" height="20" as="geometry" />
        </mxCell>
        <mxCell id="J7GmsLI8zdn7EktJSz5x-20" value="Ack_num = client_isn+1" style="text;html=1;align=center;verticalAlign=middle;resizable=0;points=[];autosize=1;strokeColor=none;fillColor=none;" vertex="1" parent="1">
          <mxGeometry x="320" y="340" width="140" height="20" as="geometry" />
        </mxCell>
        <mxCell id="J7GmsLI8zdn7EktJSz5x-21" value="Syn_num = server_isn" style="text;html=1;align=center;verticalAlign=middle;resizable=0;points=[];autosize=1;strokeColor=none;fillColor=none;" vertex="1" parent="1">
          <mxGeometry x="315" y="370" width="140" height="20" as="geometry" />
        </mxCell>
        <mxCell id="J7GmsLI8zdn7EktJSz5x-22" value="" style="endArrow=classic;html=1;rounded=0;exitX=1;exitY=0;exitDx=0;exitDy=0;entryX=0;entryY=0;entryDx=0;entryDy=0;" edge="1" parent="1" source="J7GmsLI8zdn7EktJSz5x-9" target="J7GmsLI8zdn7EktJSz5x-10">
          <mxGeometry width="50" height="50" relative="1" as="geometry">
            <mxPoint x="390" y="470" as="sourcePoint" />
            <mxPoint x="440" y="420" as="targetPoint" />
          </mxGeometry>
        </mxCell>
        <mxCell id="J7GmsLI8zdn7EktJSz5x-23" value="ACK" style="text;html=1;align=center;verticalAlign=middle;resizable=0;points=[];autosize=1;strokeColor=none;fillColor=none;" vertex="1" parent="1">
          <mxGeometry x="350" y="420" width="40" height="20" as="geometry" />
        </mxCell>
        <mxCell id="J7GmsLI8zdn7EktJSz5x-24" value="Ack_num = server_isn+1" style="text;html=1;align=center;verticalAlign=middle;resizable=0;points=[];autosize=1;strokeColor=none;fillColor=none;" vertex="1" parent="1">
          <mxGeometry x="310" y="450" width="150" height="20" as="geometry" />
        </mxCell>
      </root>
    </mxGraphModel>
  </diagram>
</mxfile>
